PathFileType	4	(X/Y/Z)	s03c0102.trc
DataRate	CameraRate	NumFrames	NumMarkers	Units	OrigDataRate	OrigDataStartFrame	OrigNumFrames
200	200	4	52	mm	200	1500	2000
Frame#	Time	racr			lacr			c7			jug			rlel			rdr			llel			ldr			s2			lic			ric			lasi			rasi			rpsi			lpsi			rgt			lgt			rth1			rth2			rth3			rth4			rlfc			rmfc			rsh1			rsh2			rsh3			rsh4			rlmal			rmmal			rcal			rtoe			rmt5			rmt1			lth1			lth2			lth4			lth3			llfc			lmfc			lsh1			lsh2			lsh3			lsh4			llmal			lmmal			lcal			ltoe			lmt1			lmt5			SBIKE			LBIKE			RBIKE			
		X1	Y1	Z1	X2	Y2	Z2	X3	Y3	Z3	X4	Y4	Z4	X5	Y5	Z5	X6	Y6	Z6	X7	Y7	Z7	X8	Y8	Z8	X9	Y9	Z9	X10	Y10	Z10	X11	Y11	Z11	X12	Y12	Z12	X13	Y13	Z13	X14	Y14	Z14	X15	Y15	Z15	X16	Y16	Z16	X17	Y17	Z17	X18	Y18	Z18	X19	Y19	Z19	X20	Y20	Z20	X21	Y21	Z21	X22	Y22	Z22	X23	Y23	Z23	X24	Y24	Z24	X25	Y25	Z25	X26	Y26	Z26	X27	Y27	Z27	X28	Y28	Z28	X29	Y29	Z29	X30	Y30	Z30	X31	Y31	Z31	X32	Y32	Z32	X33	Y33	Z33	X34	Y34	Z34	X35	Y35	Z35	X36	Y36	Z36	X37	Y37	Z37	X38	Y38	Z38	X39	Y39	Z39	X40	Y40	Z40	X41	Y41	Z41	X42	Y42	Z42	X43	Y43	Z43	X44	Y44	Z44	X45	Y45	Z45	X46	Y46	Z46	X47	Y47	Z47	X48	Y48	Z48	X49	Y49	Z49	X50	Y50	Z50	X51	Y51	Z51	X52	Y52	Z52	
1500	7.5000	433.277856	1408.691804	-46.895157	479.424083	1410.685582	-352.290035	391.846953	1501.785764	-204.289209	396.762074	1329.593715	-208.934658	494.424884	1143.412213	22.915599	723.605728	958.485674	-44.821384	559.063808	1166.893444	-454.716174	746.533354	923.898813	-422.052166	-112.324564	1206.028425	-283.525855	79.214061	1244.806586	-447.080306	13.572658	1260.513961	-79.582930	94.048517	1173.526651	-403.711789	61.469293	1192.657155	-125.013394	-97.577875	1264.034379	-243.110781	-78.328499	1257.703678	-322.077086	-3.957288	1187.188221	-69.313011	18.069795	1109.476751	-460.952801	131.868791	1118.820589	-41.224601	220.628751	1123.580150	-37.860752	298.162164	1086.763249	-34.013750	228.312832	1155.959092	-55.778514	423.061596	1033.436502	-50.108975	440.253892	1014.446321	-180.041464	354.828153	885.830715	-34.331378	332.558006	800.403660	-47.460091	270.412308	737.966505	-50.466987	360.538723	787.016278	-69.609318	199.671638	621.205172	-71.669583	229.658300	629.002192	-156.579950	128.110688	592.879525	-111.551813	420.072692	488.911616	-122.844032	304.795374	511.407828	-49.803454	330.083032	518.618742	-162.051608	104.085452	975.562866	-480.867663	169.201462	918.365884	-487.249924	199.715712	938.762800	-482.658994	198.532836	834.352438	-480.257297	282.548347	731.764730	-461.634190	287.062059	720.199049	-338.327739	215.144991	572.951308	-475.608786	215.153113	489.556373	-456.699744	170.323293	412.037264	-446.059820	248.810453	483.099024	-436.331695	130.966103	296.264174	-422.000920	168.980787	300.456051	-339.650722	63.280730	292.091165	-374.701173	320.855989	122.417669	-352.195992	238.690933	172.451118	-317.680307	210.189737	160.717214	-434.891390	-217.223927	944.872347	-238.054035	-11.417483	80.795087	-435.837547	-11.765717	81.462377	-35.514680	
1501	7.5050	432.416163	1408.782638	-45.543116	479.829428	1410.209174	-350.547212	391.717749	1501.607132	-202.995590	396.508124	1329.413263	-207.420272	494.152805	1143.606246	23.970744	723.356078	958.968290	-44.482274	558.418441	1166.224044	-454.036463	746.443866	923.800960	-421.961194	-112.422365	1206.527309	-283.730815	78.981474	1244.902450	-446.129756	12.627276	1261.336240	-79.766702	93.745340	1173.720027	-403.557526	61.341265	1192.508110	-124.692405	-97.525751	1264.365138	-243.404696	-78.467701	1258.499743	-322.189142	-4.739867	1186.564926	-69.380998	18.161742	1110.143657	-461.015293	131.347287	1116.682916	-41.305799	220.135342	1120.770273	-37.852418	297.428762	1083.622238	-34.354112	228.007112	1153.451071	-55.300984	422.256637	1029.243951	-50.604818	438.841865	1010.672995	-180.523912	355.625168	880.489001	-34.438058	334.542841	794.775192	-47.298262	273.287035	731.375704	-50.135259	362.697578	781.621428	-69.433957	204.742799	613.033335	-70.693814	233.617318	622.012878	-155.803045	133.410808	582.465321	-110.381584	428.914815	489.707174	-122.600015	312.705748	507.406750	-48.707863	337.700254	516.198230	-161.458177	105.326937	977.861836	-480.873406	171.030340	921.383575	-487.563414	201.286314	941.980447	-482.718704	201.218125	837.556787	-481.378999	285.212657	734.938626	-463.303965	290.584126	723.577168	-339.921686	215.263961	577.037698	-476.432161	213.900240	493.666645	-457.238138	167.786629	416.994009	-446.209123	247.721556	487.231810	-437.951201	126.705217	302.365149	-421.934426	165.340843	305.718750	-339.561660	59.074639	300.427764	-374.242782	310.726405	122.004887	-352.030551	230.406962	174.721298	-317.559052	201.543161	164.337767	-434.580091	-217.254550	944.869933	-237.999564	-11.423287	80.841344	-435.814432	-11.764728	81.499477	-35.497956	
1502	7.5100	431.574638	1408.880140	-44.383183	480.172794	1409.869755	-348.986501	391.558793	1501.482617	-201.797823	396.244134	1329.289862	-206.085318	493.846161	1143.916704	24.869732	723.088187	959.383546	-44.182224	557.637475	1165.558691	-453.455370	746.257233	923.764583	-421.843152	-112.523894	1206.851681	-283.692836	77.086235	1244.172942	-441.322167	11.848609	1261.902185	-79.678546	93.399797	1173.987951	-403.374661	61.268528	1192.274134	-124.265932	-97.469918	1264.541550	-243.503200	-78.655925	1259.024540	-322.152998	-5.394505	1185.419286	-69.517349	18.176121	1110.892774	-461.002390	130.884742	1113.892617	-41.223705	219.672787	1117.273776	-37.655064	296.701591	1079.475639	-34.386742	227.861724	1150.094515	-54.624397	421.198572	1023.958796	-51.043367	437.315576	1005.604870	-180.744700	356.148204	874.028619	-34.285331	336.254747	787.956751	-46.988908	275.845725	723.774960	-49.701472	364.605525	775.234773	-69.121282	209.674734	604.060502	-69.705777	238.108310	613.233622	-155.021080	138.583322	570.989032	-109.078031	437.272674	490.046729	-122.243235	320.569758	502.418236	-47.537572	345.000250	512.736927	-160.605901	106.543654	980.178872	-480.887648	172.887791	924.463932	-487.634607	202.872961	945.377453	-482.697135	203.968317	841.018196	-482.368628	288.087382	738.413155	-464.876217	294.403306	727.049465	-341.245591	215.560942	581.352801	-477.110251	212.904133	498.175393	-457.745897	165.478067	422.289286	-446.198001	246.635343	491.087707	-438.486872	122.765683	308.802131	-421.752933	161.747708	311.409468	-339.251751	55.037539	308.961317	-373.721845	300.719144	122.192408	-351.864158	222.356555	177.588073	-317.468379	193.112292	168.476353	-434.161614	-217.259449	944.867786	-237.950428	-11.416421	80.847753	-435.810136	-11.754312	81.477179	-35.492271	
1503	7.5150	430.831844	1409.066411	-43.405374	480.472651	1409.558368	-347.634349	391.376177	1501.346558	-200.862911	396.082772	1329.156135	-204.912268	493.563240	1144.254058	25.554962	722.772190	959.806927	-43.898118	556.723055	1165.010439	-453.139465	746.081860	923.830742	-421.683167	-112.661495	1207.057264	-283.487986	76.825798	1244.450509	-440.970707	11.213349	1262.058117	-79.536825	93.022212	1174.433580	-403.195990	61.251144	1191.957897	-123.736221	-97.428336	1264.506208	-243.393863	-78.897515	1259.455795	-321.868802	-5.818146	1183.901486	-69.885676	18.531731	1111.644243	-460.563080	130.291058	1110.812423	-40.294646	219.302284	1112.965538	-37.318937	295.893584	1074.285331	-34.353067	227.869363	1145.890915	-53.728182	419.850749	1017.660654	-51.336672	435.670540	999.481845	-180.733163	356.411844	866.458309	-33.989625	337.729145	780.116640	-46.612425	278.206881	715.094599	-49.220776	366.240729	767.772016	-68.689414	214.421438	593.887397	-68.905436	242.085907	603.823938	-154.592926	143.724707	558.443456	-107.953366	444.913406	489.548275	-121.970525	328.457253	496.421567	-46.482153	351.964408	508.362968	-159.613902	107.750007	982.601741	-480.775503	174.760675	927.723002	-487.570486	204.434515	948.891493	-482.637805	206.822772	844.573024	-483.142400	291.208075	742.100716	-466.327578	298.423946	730.724776	-342.618543	216.084576	585.941050	-477.760984	212.032847	502.792879	-458.084306	163.385281	427.881975	-446.163287	245.737752	495.235341	-438.969284	118.998580	315.551842	-421.467929	158.473491	317.260113	-339.024198	51.241577	317.782749	-373.195807	290.825831	123.046620	-351.748861	214.327940	180.875159	-317.311270	184.882985	173.159387	-433.787573	-217.263893	944.837026	-237.891185	-11.401469	80.860754	-435.838490	-11.762472	81.471563	-35.490373	
